# xmcd
#
# Track frame offsets: 
#        150
#        20173
#        42145
#        59498
#        76198
#        95367
#        113211
#        133014
#        158889
#        177565
#        197901
#        214316
#
# Disc length: 3091 seconds
#
# Revision: 0
# Processed by: cddbd v1.5.2PL0 Copyright (c) Steve Scherf et al.
# Submitted via: ExactAudioCopy v1.0b6
#
DISCID=ab0c110c
DTITLE=UMBERTO TOZZI - Umberto Tozzi CD2
DYEAR=2013
DGENRE=Blues
TTITLE0=01 Gloria
TTITLE1=02 Io Camminerò
TTITLE2=03 Per Darti Amore
TTITLE3=04 Scegli
TTITLE4=05 Dimentica Dimentica
TTITLE5=06 Perdendo Anna
TTITLE6=07 Fatto Così
TTITLE7=08 A Cosa Servono Le Mani
TTITLE8=09 Per Angela
TTITLE9=10 Io Muoio Di Te
TTITLE10=11 Aria E Cielo
TTITLE11=12 Gente Di Mare 
EXTD=
EXTT0=
EXTT1=
EXTT2=
EXTT3=
EXTT4=
EXTT5=
EXTT6=
EXTT7=
EXTT8=
EXTT9=
EXTT10=
EXTT11=
PLAYORDER=
